<svg width="22" height="14" viewBox="0 0 22 14" fill="none" xmlns="http://www.w3.org/2000/svg">
<path d="M0 11.1897L9.65125 2.27342L10.8681 3.39759L14.5458 0L21.1883 0.00222568V3.93982L16.339 3.91101L13.9036 6.20187L15.0965 7.30395L9.40823 12.559C8.28293 13.6425 6.2579 13.6426 5.1326 12.5589L4.86721 12.3138L3.042 14L0 11.1897ZM15.801 2.7155L19.8977 2.73978V1.19404L15.0802 1.19245L11.7807 4.24065L12.9909 5.3587L15.801 2.7155ZM9.65125 3.95961L3.6504 9.50344L4.86725 10.6276L7.70611 8.005L11.3742 9.05659L13.2713 7.30395L9.65125 3.95961ZM6.04525 11.7159C6.69026 12.3369 7.85066 12.3369 8.49567 11.7159L10.3429 10.0094L8.0677 9.3571L5.77981 11.4707L6.04525 11.7159ZM2.7378 10.3465L1.8252 11.1897L3.042 12.3138L3.95461 11.4707L2.7378 10.3465ZM19.2168 7.95691L19.6152 7.668C20.1065 8.04136 21.9177 9.21482 22 10.8728C22 12.0876 20.9302 13.0759 19.6152 13.0759C18.3002 13.0759 17.2304 12.0876 17.2304 10.8728C17.2304 9.43854 19.0134 8.10432 19.2168 7.95691ZM19.6151 11.8837C20.2184 11.8837 20.7093 11.4302 20.7093 10.8728C20.7093 10.3613 20.139 9.68726 19.6152 9.21915C19.091 9.6875 18.521 10.3614 18.521 10.8728C18.521 11.4302 19.0119 11.8837 19.6151 11.8837Z" fill="#727272"/>
</svg>
